<svg id="Calque_1" data-name="Calque 1" xmlns="http://www.w3.org/2000/svg" viewBox="0 0 889.27 893.33"><defs><style>.cls-1{fill:#2aa04e;}.cls-2{fill:#204969;}</style></defs><title>LogoOptaLP_WithoutText</title><path class="cls-1" d="M707.9,626.27c-1.24,2-2.45,3.89-3.69,5.74s-2.57,3.83-3.89,5.7c-1.52,2.19-3.11,4.37-4.34,6l-.17.2c-1.8,2.4-3.29,4.33-4.71,6.1s-2.69,3.33-4.51,5.47l-.14.19c-.16.22-.34.42-.55.66-3.19,3.72-6.52,7.39-9.88,10.87l-.32.32c-1.6,1.63-3.41,3.47-5.27,5.27s-3.65,3.53-5.53,5.23c-2.36,2.15-4.46,4-6.47,5.68-1.38,1.2-2.9,2.47-4.77,4-.26.21-.52.42-.78.6l-.15.11c-1.71,1.4-3.53,2.83-5.59,4.36-1.9,1.45-3.93,2.92-6.21,4.52-1.78,1.28-3.66,2.56-5.81,4-.37.26-.77.53-1.17.77l-.1.06c-1.51,1-3.52,2.31-5.62,3.56l-.27.16,0,0c-2.18,1.36-4.29,2.62-6.51,3.88-1.17.7-2.39,1.36-3.36,1.89s-2.24,1.22-3.4,1.84c-2.12,1.15-4.36,2.3-6.9,3.52-1.13.56-2.29,1.13-3.53,1.7s-2.37,1.13-3.58,1.67c-1.52.7-3.17,1.43-4.92,2.16a239.85,239.85,0,0,1-23,8.45c-1.65.54-3.35,1-5,1.49-2.66.76-5.16,1.44-7.61,2.08-1.6.39-3.23.78-4.85,1.15-1.89.45-3.82.85-5.75,1.25l-.44.09-.65.14-.17,0c-1.65.31-3.29.63-4.91.92s-3,.54-4.52.78l-2.48.36c-1.59.24-3.19.46-4.77.66-2.12.27-4.31.54-6.52.76-2,.21-4.09.39-6.21.54-4,.31-7.32.49-10.52.57h-.11c-.67,0-1.35,0-2.09,0-2,.06-4,.09-6.08.09-.86,0-1.77,0-2.74,0h-.82c-.91,0-1.83,0-2.74-.06h-.12c-1.25,0-2.5-.06-3.73-.12-1.44-.06-2.89-.12-4.33-.21s-2.86-.18-4.33-.3c-3.94-.29-8-.69-12.25-1.22l-.68-.1a4.32,4.32,0,0,1-.53-.07l-2.17-.29-1.83-.25a1.84,1.84,0,0,0-.42-.07c-1.22-.18-2.34-.35-3.45-.58l-.11,0c-1.35-.2-2.66-.43-4-.67l-.11,0c-1.35-.23-2.66-.49-4-.76h0l-.91-.19-1.05-.22c-.63-.13-1.27-.25-2-.43l-.85-.18L446,736l-1.16-.27c-1.8-.41-3.6-.85-5.37-1.28a2.91,2.91,0,0,0-.64-.18c-1.91-.5-3.82-1-5.7-1.56s-3.92-1.13-5.75-1.71c-4.09-1.28-7.82-2.54-11.38-3.82-1.87-.7-3.74-1.42-5.58-2.15s-3.68-1.47-5.59-2.29c-.34-.13-.66-.26-1-.42l-.1,0c-1-.39-1.9-.8-2.83-1.25s-1.91-.84-2.89-1.29-2-.9-2.93-1.36l-.24-.12-.25-.12-.12-.07-.82-.39c-1.59-.78-3.17-1.56-4.78-2.38-1-.5-2-1-3-1.59l-.13-.07c-.7-.34-1.43-.75-2.2-1.18-1.11-.58-2.25-1.21-3.41-1.88-5.62-3.16-11.35-6.7-17-10.54-1.54-1-3-2.11-4.6-3.23-.65-.44-1.33-.91-2-1.38a252.27,252.27,0,0,1-21.24-17.33l-1.82-1.71-1.71-1.61c-1.14-1.08-2.28-2.16-3.41-3.29s-2.34-2.32-3.34-3.36-2.14-2.23-3.2-3.35l-.09-.1c-1.05-1.11-2.08-2.25-3.11-3.4l-.09-.1c-1.22-1.32-2.21-2.44-3.15-3.54l-.08-.09c-.79-.91-1.57-1.81-2.36-2.75q-1.48-1.74-3-3.6l-.4-.49q-1.49-1.83-2.9-3.71c-2.76-3.52-5.37-7.08-7.76-10.59l-.09-.12a5.58,5.58,0,0,1-.44-.64l-.11-.16c-.68-1-1.37-2-2.15-3.2-1.58-2.36-3.14-4.8-4.76-7.47-1.33-2.16-2.31-3.83-3.24-5.48-.43-.73-.87-1.48-1.25-2.18,0-.1-.1-.2-.18-.33l0-.11c-.8-1.41-1.62-2.88-2.4-4.36-.32-.58-.63-1.19-.93-1.77a1.65,1.65,0,0,0-.14-.26c-1-1.84-1.82-3.52-2.65-5.23-.28-.53-.53-1-.78-1.59-1-2.09-2-4.21-2.92-6.3-1.05-2.38-2.09-4.82-3.07-7.23-1.16-2.84-2.07-5.17-2.86-7.35-.89-2.43-1.81-4.94-2.62-7.45l0-.11-.09-.26c-.05-.15-.09-.29-.12-.36l-.16-.53c-.42-1.24-.84-2.58-1.24-4l-.06-.2a4,4,0,0,1-.16-.45l-.17-.51c-.13-.39-.26-.77-.36-1.15s-.27-1-.43-1.44l-.8-2.81,0-.12c-.14-.41-.26-.84-.37-1.26l-.08-.3a4.37,4.37,0,0,0-.12-.52l-.06-.25c-.57-2.08-1.07-4-1.54-6-1.35-5.51-2.5-11.14-3.43-16.76-.5-2.86-1-5.88-1.39-9.28-.11-.88-.23-1.77-.33-2.73-.17-1.32-.32-2.7-.45-4.18-.21-1.87-.36-3.81-.51-5.76s-.29-3.84-.39-6.19-.22-4.38-.24-6.29c-.06-2.06-.09-4.18-.09-6.29s0-4.23.09-6.36c0-1.87.1-3.91.24-6.24.09-1.79.18-3.64.33-5.49v-.2a3.28,3.28,0,0,1,0-.43v-.12c.14-1.84.31-3.65.47-5.49l0-.39c0-.12,0-.24,0-.41l0-.18c.12-1.28.26-2.57.42-3.84,0-.38.09-.76.14-1.14s.11-.82.16-1.21c.39-3.2.87-6.4,1.44-9.54.73-4.32,1.51-8.31,2.38-12.2.62-2.75,1.31-5.61,2-8.48.6-2.26,1.23-4.53,1.87-6.77A38.16,38.16,0,0,0,298,402h16.77l64.83,64.83h39.55a86.63,86.63,0,0,0-4.92,19.87h-57a29.62,29.62,0,1,0,0,21.56h57a85.68,85.68,0,0,0,4.92,19.83H379.62L339.4,568.32a27.81,27.81,0,0,0-5.11-1.15,30.23,30.23,0,0,0-3.94-.27,29.48,29.48,0,0,0-29.56,28.38c0,.41,0,.79,0,1.21a29.59,29.59,0,0,0,58.35,7,29.93,29.93,0,0,0,.83-7A29.46,29.46,0,0,0,356.15,582l32.39-32.4h42.67a86.24,86.24,0,0,0,137.64,0h42.67l64.83,64.86h25.71A37.68,37.68,0,0,0,707.9,626.27Z" transform="translate(-55.37 -51.02)"/><path class="cls-2" d="M744.72,497.71c0,2.1,0,4.23-.09,6.36,0,1.87-.11,3.91-.24,6.24-.09,1.79-.18,3.65-.33,5.49V516a3.47,3.47,0,0,1,0,.42v.12c-.14,1.84-.31,3.66-.48,5.49l0,.39c0,.12,0,.25,0,.41l0,.18c-.12,1.29-.27,2.57-.42,3.84,0,.38-.09.76-.14,1.14s-.11.82-.16,1.22c-.39,3.19-.88,6.39-1.45,9.53-.73,4.33-1.51,8.32-2.37,12.2-.62,2.76-1.31,5.62-2,8.49-.6,2.26-1.23,4.53-1.87,6.76a38.16,38.16,0,0,0-32.75,27H685.43L620.6,528.36H581.05A85.89,85.89,0,0,0,586,508.49h57a29.62,29.62,0,1,0,0-21.55H586a85.63,85.63,0,0,0-4.92-19.84H620.6l40.23-40.25a29.35,29.35,0,0,0,5.11,1.15,32,32,0,0,0,3.94.26,29.47,29.47,0,0,0,29.55-28.37c0-.42,0-.8,0-1.22a29.59,29.59,0,0,0-58.35-7,30,30,0,0,0-.83,7,29.42,29.42,0,0,0,3.79,14.48l-32.4,32.39H569a86.25,86.25,0,0,0-137.65,0H388.71l-64.83-64.86H298.17a37.68,37.68,0,0,0-5.84-11.79c1.23-2,2.44-3.88,3.68-5.74s2.56-3.82,3.9-5.7c1.5-2.17,3-4.26,4.34-6l.17-.2c1.8-2.41,3.29-4.34,4.71-6.1s2.71-3.36,4.51-5.47l.14-.18a7.75,7.75,0,0,1,.55-.67c3.18-3.71,6.51-7.38,9.88-10.87l.32-.32c1.7-1.72,3.45-3.51,5.24-5.24s3.67-3.55,5.56-5.26c2.35-2.15,4.46-4,6.46-5.68,1.39-1.2,2.91-2.47,4.77-4,.26-.21.52-.42.78-.61l.16-.11c1.7-1.39,3.52-2.82,5.59-4.36,1.91-1.46,3.94-2.93,6.2-4.52,1.78-1.27,3.66-2.56,5.82-4,.37-.26.77-.53,1.17-.77l.09-.06c1.53-1,3.54-2.32,5.62-3.56l.28-.16,0,0c2.18-1.36,4.3-2.62,6.5-3.87,1.19-.71,2.4-1.37,3.37-1.9s2.22-1.21,3.4-1.83c2.09-1.15,4.4-2.32,6.89-3.52,1.13-.57,2.3-1.14,3.46-1.67l.11-.05c1.17-.56,2.35-1.12,3.55-1.66,1.51-.7,3.16-1.42,4.92-2.16a243.59,243.59,0,0,1,23-8.45c1.64-.53,3.34-1,5-1.49,2.67-.76,5.16-1.44,7.61-2.08,1.6-.39,3.23-.78,4.85-1.15,1.87-.44,3.78-.84,5.64-1.22l.1,0,.45-.1.65-.14h.06c1.68-.32,3.36-.65,5-.94s3-.55,4.52-.78l2.47-.37c1.57-.24,3.14-.44,4.78-.66,2.12-.27,4.31-.54,6.52-.76,2-.2,4.09-.38,6.21-.54,4-.31,7.31-.49,10.59-.57.69,0,1.37-.06,2.13-.06,2.05-.06,4-.09,6.07-.09.91,0,1.77,0,2.74,0h.83c.91,0,1.83,0,2.79.06,1.28,0,2.54.06,3.8.12,1.44.06,2.89.12,4.33.21s2.86.18,4.33.3c3.92.29,8,.69,12.3,1.23.21,0,.42.06.64.09l.52.07,2.09.28,1.9.27.42.07c1.24.18,2.36.35,3.46.57l.11,0c1.38.21,2.72.45,4.09.69s2.73.51,4,.77l.91.19,1,.21c.64.13,1.28.25,2,.43l.85.19.92.2,1.15.27c1.81.41,3.61.84,5.38,1.28a3.65,3.65,0,0,0,.64.17c1.91.5,3.82,1,5.7,1.56s3.92,1.14,5.74,1.71c4.11,1.29,7.83,2.54,11.38,3.83,1.88.69,3.75,1.42,5.59,2.14s3.68,1.48,5.59,2.29c.34.13.66.27,1,.43l.1,0c1,.4,1.91.81,2.83,1.25s1.91.84,2.89,1.3,2,.89,2.93,1.36l.23.11.25.13.13.06c.27.14.55.28.85.41,1.58.78,3.16,1.55,4.75,2.36,1,.5,2,1,3,1.59l.14.07c.68.33,1.37.72,2.11,1.13l.09.05c1.12.59,2.26,1.22,3.41,1.88,5.61,3.16,11.35,6.71,17,10.54,1.53,1.05,3,2.11,4.6,3.23.65.44,1.33.91,2,1.39A252.37,252.37,0,0,1,665,317.09l1.84,1.72,1.7,1.6c1.14,1.08,2.28,2.16,3.41,3.29,1.29,1.25,2.34,2.31,3.33,3.36s2.21,2.3,3.3,3.45,2.11,2.29,3.2,3.51,2.21,2.43,3.15,3.53c.81.94,1.62,1.87,2.44,2.84q1.49,1.75,3,3.6l.4.49q1.47,1.83,2.9,3.72c2.75,3.51,5.36,7.07,7.76,10.58l.09.12a7.23,7.23,0,0,1,.44.64l.11.16c.68,1,1.37,2,2.15,3.2,1.57,2.35,3.12,4.78,4.75,7.47,1.33,2.15,2.31,3.82,3.24,5.48.44.73.88,1.49,1.25,2.17,0,.11.11.21.18.34l.06.11c.8,1.41,1.62,2.87,2.39,4.36.32.58.64,1.19.94,1.79l.14.24c1,1.85,1.82,3.53,2.65,5.24.27.52.52,1,.77,1.59,1,2.05,1.94,4.13,2.89,6.21l0,.08c1,2.37,2.08,4.81,3.07,7.24,1.16,2.84,2.07,5.17,2.86,7.34.89,2.42,1.81,4.93,2.62,7.45l0,.12.09.27c0,.13.09.27.12.36l.16.51c.42,1.24.83,2.57,1.24,4l.06.19a4,4,0,0,1,.16.45l.17.54c.13.38.25.75.36,1.12s.26,1,.42,1.44l.8,2.81,0,.12c.13.41.25.84.36,1.25l.09.31a4,4,0,0,0,.12.52l.06.25c.57,2.09,1.07,4,1.53,6,1.36,5.5,2.51,11.13,3.44,16.76.51,2.87,1,5.9,1.38,9.27.12.89.24,1.77.34,2.73.17,1.33.32,2.71.45,4.19.2,1.84.35,3.77.5,5.64v.11c.16,1.82.29,3.84.39,6.19s.21,4.39.24,6.29C744.69,493.49,744.72,495.61,744.72,497.71Z" transform="translate(-55.37 -51.02)"/><circle class="cls-2" cx="444.63" cy="446.67" r="52"/><path class="cls-2" d="M838.21,540.47H933.5a10,10,0,0,1,9.93,11.24C916.76,772.92,728.41,944.35,500,944.35S83.24,772.92,56.57,551.71a10,10,0,0,1,9.93-11.24h95.29a10,10,0,0,1,9.89,8.53C196.35,708.13,333.94,829.94,500,829.94S803.65,708.13,828.32,549A10,10,0,0,1,838.21,540.47Z" transform="translate(-55.37 -51.02)"/><path class="cls-2" d="M160.34,465.35h-95a10,10,0,0,1-10-11C77.21,228,267.93,51,500,51S922.79,228,944.59,454.34a10,10,0,0,1-10,11h-95a10,10,0,0,1-9.93-8.84C809.46,292.44,669.56,165.43,500,165.43s-309.46,127-329.73,291.08A10,10,0,0,1,160.34,465.35Z" transform="translate(-55.37 -51.02)"/></svg>